<?xml version="1.0" encoding="UTF-8"?>
<svg width="120px" height="35px" viewBox="0 0 120 35" version="1.1" xmlns="http://www.w3.org/2000/svg" xmlns:xlink="http://www.w3.org/1999/xlink">
    <!-- Generator: Sketch 52.4 (67378) - http://www.bohemiancoding.com/sketch -->
    <title>logo</title>
    <desc>Created with Sketch.</desc>
    <g id="Symbols" stroke="none" stroke-width="1" fill="none" fill-rule="evenodd">
        <g id="menu" transform="translate(-390.000000, -15.000000)" fill="#FFFFFF" fill-rule="nonzero">
            <g id="logo" transform="translate(390.000000, 15.000000)">
                <g id="casaeditorial">
                    <g id="Group">
                        <polygon id="Shape" points="52.9145592 0.201001133 64.3403438 0.201001133 64.3403438 3.15206322 57.3400392 3.15206322 57.3400392 7.23147257 62.5701518 7.23147257 62.5701518 9.66175899 57.3400392 9.66175899 57.3400392 20.3376601 64.3403438 20.3376601 64.3403438 23.0283343 52.834096 23.0283343"></polygon>
                        <polygon id="Shape" points="30.6262331 0.201001133 44.7877688 0.201001133 44.7877688 3.32565511 40.2818256 3.32565511 40.2818256 23.0283343 35.2931028 23.0283343 35.3735661 3.15206322 30.6262331 3.06526727"></polygon>
                        <polygon id="Shape" points="13.5680195 0.201001133 18.2348893 0.201001133 18.2348893 20.3376601 24.7524143 20.3376601 24.7524143 23.0283343 13.4875563 22.9415384"></polygon>
                        <polygon id="Shape" points="0.0501899613 0.201001133 11.4759745 0.201001133 11.4759745 3.06526727 4.79752297 3.06526727 4.7170597 6.97108474 9.70578252 6.97108474 9.70578252 9.66175899 4.7170597 9.66175899 4.7170597 20.3376601 11.4759745 20.3376601 11.4759745 22.9415384 0.0501899613 22.9415384"></polygon>
                        <polygon id="Shape" points="69.731383 23.0283343 66.5933154 23.0283343 66.5933154 0.201001133 69.731383 0.201001133 74.8810323 11.3976779 78.7432693 0.201001133 83.4906024 0.201001133 83.4101391 23.0283343 78.5018795 23.0283343 78.5018795 10.8769022 74.478716 23.0283343 73.7545465 23.0283343 69.731383 11.6580657"></polygon>
                        <polygon id="Shape" points="46.3970343 0.201001133 50.8225142 0.201001133 50.8225142 23.0283343 46.316571 23.0283343"></polygon>
                        <path d="M94.5140705,0.201001133 L85.2607943,0.201001133 L85.2607943,23.0283343 L90.1690539,23.0283343 L90.1690539,14.7827197 L94.9163869,14.7827197 C97.0888952,14.6959237 99.985573,11.8316576 100.066036,7.75224823 C99.985573,3.75963482 97.8130647,0.201001133 94.5140705,0.201001133 Z M93.3875847,11.3976779 L90.2495171,11.3976779 L90.2495171,3.41245105 L93.1461949,3.41245105 C94.5140705,3.41245105 95.8014829,5.40875775 95.8014829,7.31826852 C95.8014829,9.31457522 94.7554603,11.3976779 93.3875847,11.3976779 Z" id="Shape"></path>
                        <path d="M110.204408,0.287797076 C105.296149,0.201001133 101.353449,5.32196181 101.433912,11.6580657 C101.353449,17.9941696 105.296149,23.2019262 110.204408,23.2887222 C115.032205,23.2019262 118.974905,17.9941696 118.974905,11.6580657 C118.974905,5.32196181 115.032205,0.114205189 110.204408,0.287797076 Z M110.204408,21.3792114 C108.595143,21.4660073 107.307731,17.0394142 107.307731,11.6580657 C107.307731,6.27671719 108.595143,1.93692001 110.204408,1.93692001 C111.813674,1.85012406 113.020623,6.27671719 113.101086,11.6580657 C113.101086,17.0394142 111.813674,21.4660073 110.204408,21.3792114 Z" id="Shape"></path>
                    </g>
                    <g id="Group" transform="translate(0.000000, 27.000000)">
                        <polygon id="Shape" points="70.0131789 0.402462504 75.0037115 0.402462504 75.0037115 1.37348315 73.3402007 1.37348315 73.3402007 7.56373977 71.6766898 7.56373977 71.6766898 1.37348315 70.0131789 1.37348315"></polygon>
                        <g id="Shape">
                            <polygon points="44.8387146 0.281084924 48.3875378 0.281084924 48.3875378 1.13072799 46.280424 1.13072799 46.280424 2.3445038 47.8330341 2.3445038 47.8330341 3.19414686 46.280424 3.19414686 46.280424 6.59271912 48.3875378 6.59271912 48.3875378 7.44236219 44.8387146 7.44236219"></polygon>
                            <path d="M81.7686557,0.0383297623 C80.2160456,0.0383297623 78.8852369,1.73761589 78.8852369,3.80103476 C78.8852369,5.86445364 80.1051448,7.56373977 81.7686557,7.68511735 C83.3212658,7.68511735 84.6520745,5.98583122 84.6520745,3.80103476 C84.6520745,1.73761589 83.4321666,0.0383297623 81.7686557,0.0383297623 Z M81.7686557,7.07822944 C81.2141521,7.07822944 80.8814499,5.62169847 80.7705492,3.80103476 C80.7705492,1.98037105 81.2141521,0.523840085 81.7686557,0.645217666 C82.3231593,0.645217666 82.6558615,2.10174863 82.7667622,3.92241234 C82.7667622,5.62169847 82.3231593,7.07822944 81.7686557,7.07822944 Z"></path>
                            <path d="M4.91445393,2.3445038 C4.47085103,1.61623831 4.13814886,0.887972827 3.36184379,0.887972827 C2.25283655,0.887972827 1.92013438,2.46588138 1.92013438,3.80103476 C1.92013438,5.13618815 2.25283655,6.59271912 3.36184379,6.59271912 C4.35995031,6.59271912 4.8035532,5.98583122 5.13625538,5.01481057 L5.80165972,5.62169847 C5.2471561,6.95685186 4.47085103,7.56373977 3.25094307,7.56373977 C1.47653148,7.56373977 0.256623518,5.98583122 0.256623518,3.80103476 C0.256623518,1.61623831 1.47653148,0.0383297623 3.25094307,0.0383297623 C4.47085103,0.0383297623 5.02535465,0.523840085 5.690759,1.61623831 L4.91445393,2.3445038 Z"></path>
                            <path d="M10.126788,7.44236219 L12.2339017,0.281084924 L13.8974126,0.281084924 L16.1154271,7.44236219 L14.2301147,7.44236219 L13.5647104,5.37894331 L11.5684974,5.37894331 L11.0139938,7.44236219 L10.126788,7.44236219 Z M11.9011995,4.40792267 L13.342909,4.40792267 L12.5666039,1.98037105 L11.9011995,4.40792267 Z"></path>
                            <path d="M20.8841582,5.50032089 C21.1059596,5.98583122 21.4386618,6.59271912 21.9931654,6.59271912 C22.4367683,6.59271912 22.7694705,6.22858638 22.7694705,5.74307606 C22.7694705,4.52930025 20.1078531,4.77205541 20.1078531,2.46588138 C20.1078531,1.00935041 20.9950589,0.0383297623 22.2149669,0.0383297623 C23.2130734,0.0383297623 23.767577,0.523840085 24.2111799,1.49486073 L23.5457756,2.10174863 C23.3239741,1.49486073 22.9912719,1.00935041 22.4367683,1.00935041 C21.9931654,1.00935041 21.771364,1.37348315 21.771364,1.85899347 C21.771364,3.07276928 24.4329814,2.70863654 24.4329814,5.13618815 C24.4329814,6.59271912 23.4348748,7.56373977 22.2149669,7.56373977 C21.2168604,7.56373977 20.551456,7.19960702 19.9969524,6.1072088 L20.8841582,5.50032089 Z"></path>
                            <path d="M28.203606,7.44236219 L30.3107197,0.281084924 L31.9742306,0.281084924 L34.1922451,7.44236219 L32.3069328,7.44236219 L31.6415284,5.37894331 L29.6453154,5.37894331 L29.0908118,7.44236219 L28.203606,7.44236219 Z M29.8671168,4.40792267 L31.3088263,4.40792267 L30.5325212,1.98037105 L29.8671168,4.40792267 Z"></path>
                            <path d="M53.1562689,0.281084924 L55.8178863,0.281084924 C57.7031986,0.281084924 59.0340073,1.73761589 59.0340073,4.04378993 C59.0340073,6.34996396 57.7031986,7.44236219 56.0396877,7.44236219 L53.0453682,7.44236219 L53.0453682,0.281084924 L53.1562689,0.281084924 Z M55.4851841,6.47134154 C56.7050921,6.47134154 57.2595957,5.01481057 57.2595957,3.67965718 C57.2595957,2.3445038 56.5941913,1.13072799 55.4851841,1.13072799 L54.9306805,1.13072799 L54.9306805,6.47134154 L55.4851841,6.47134154 Z"></path>
                            <polygon points="63.6918377 0.281084924 65.3553485 0.281084924 65.3553485 7.44236219 63.6918377 7.44236219"></polygon>
                            <path d="M89.5317064,7.44236219 L89.5317064,0.281084924 L92.6369267,0.281084924 C93.6350332,0.281084924 94.7440404,1.13072799 94.7440404,2.46588138 C94.7440404,3.43690202 94.0786361,4.16516751 93.302331,4.40792267 L94.7440404,7.44236219 L92.8587281,7.44236219 L91.306118,3.80103476 L91.5279194,3.80103476 C92.3042245,3.80103476 92.9696288,3.67965718 92.9696288,2.46588138 C92.9696288,1.61623831 92.5260259,1.13072799 91.8606216,1.13072799 L91.1952172,1.13072799 L91.1952172,7.44236219 L89.5317064,7.44236219 Z"></path>
                            <polygon points="99.1800694 0.281084924 100.84358 0.281084924 100.84358 7.44236219 99.1800694 7.44236219"></polygon>
                            <path d="M105.057808,7.44236219 L107.164922,0.281084924 L108.828432,0.281084924 L111.046447,7.44236219 L109.161135,7.44236219 L108.49573,5.37894331 L106.499517,5.37894331 L105.945014,7.44236219 L105.057808,7.44236219 Z M106.832219,4.40792267 L108.273929,4.40792267 L107.497624,1.98037105 L106.832219,4.40792267 Z"></path>
                            <polygon points="115.482476 0.281084924 117.145987 0.281084924 117.145987 6.47134154 119.364001 6.47134154 119.364001 7.44236219 115.482476 7.44236219"></polygon>
                        </g>
                    </g>
                </g>
            </g>
        </g>
    </g>
</svg>