<?xml version="1.0" encoding="UTF-8"?>
<svg width="14px" height="14px" viewBox="0 0 14 14" version="1.1" xmlns="http://www.w3.org/2000/svg" xmlns:xlink="http://www.w3.org/1999/xlink">
    <!-- Generator: sketchtool 55.1 (78136) - https://sketchapp.com -->
    <title>B6513838-C3EE-47DC-A8F8-4BD5178D251D</title>
    <desc>Created with sketchtool.</desc>
    <g id="Guia-de-estilos" stroke="none" stroke-width="1" fill="none" fill-rule="evenodd">
        <g id="guia-de-estilos---Ãconos" transform="translate(-666.000000, -836.000000)" fill="#CCCCCC" fill-rule="nonzero">
            <g id="user-circle" transform="translate(666.000000, 836.000000)">
                <path d="M0,7 C0,3.13399597 3.13399597,0 7,0 C10.866004,0 14,3.13399597 14,7 C14,10.866004 10.866004,14 7,14 C3.13399597,14 0,10.866004 0,7 Z M2.04510081,10.5527258 C3.15160887,12.0932339 4.9585121,13.0967742 7,13.0967742 C9.0414879,13.0967742 10.8483911,12.0932339 11.9548992,10.5527258 C11.8662419,9.79091129 11.3151048,9.15137097 10.5566492,8.96175 L9.64286694,8.73331855 C8.90707661,9.36504032 7.98005645,9.70967742 7,9.70967742 C6.01994355,9.70967742 5.09292339,9.36504032 4.35710484,8.73331855 L3.44332258,8.96175 C2.68489516,9.15137097 2.13375806,9.79091129 2.04510081,10.5527258 Z M3.83870968,5.64516129 C3.83870968,7.39109677 5.25406452,8.80645161 7,8.80645161 C8.74593548,8.80645161 10.1612903,7.39109677 10.1612903,5.64516129 C10.1612903,3.89922581 8.74593548,2.48387097 7,2.48387097 C5.25406452,2.48387097 3.83870968,3.89922581 3.83870968,5.64516129 Z" id="Shape"></path>
            </g>
        </g>
    </g>
</svg>